<svg width="44" height="60" viewBox="0 0 44 60" fill="none" xmlns="http://www.w3.org/2000/svg">
<path d="M7.51265 0.97117C7.92556 -0.405194 8.94636 -0.0228707 9.40515 0.340336L17.5215 15.0789L0 48.169C2.38952 33.0099 7.23738 2.34754 7.51265 0.97117Z" fill="#FFA610"/>
<path d="M20.8174 9.05731L17.4912 15.1362L23.1114 25.2296L28.5021 19.8962C26.8008 16.742 23.2375 10.1584 22.5952 9.05731C21.9529 7.95622 21.1424 8.59852 20.8174 9.05731Z" fill="#FFA610"/>
<path d="M17.4913 15.1362L0 48.2263L23.1114 25.2296L17.4913 15.1362Z" fill="#F5820B"/>
<path d="M35.9002 12.4982L0.057373 48.2263C6.25101 51.8202 18.9021 59.1455 20.1867 59.696C21.4713 60.2466 22.5189 59.9254 22.8821 59.696C29.6683 55.9875 43.2637 48.559 43.3555 48.5131C43.4472 48.4672 43.4319 48.1116 43.4128 47.9396C41.7497 36.8331 38.2973 14.3334 37.7927 13.1864C37.288 12.0395 36.3207 12.2497 35.9002 12.4982Z" fill="#FFCB2D"/>
</svg>
